<svg width="40" height="40" xmlns="http://www.w3.org/2000/svg">
 <defs>
  <filter height="200%" width="200%" y="-50%" x="-50%" id="svg_11_blur">
   <feGaussianBlur stdDeviation="0" in="SourceGraphic"/>
  </filter>
  <filter id="svg_12_blur">
   <feGaussianBlur stdDeviation="0" in="SourceGraphic"/>
  </filter>
 </defs>
 <g>
  <title>background</title>
  <rect fill="none" id="canvas_background" height="42" width="42" y="-1" x="-1"/>
 </g>
 <g>
  <title>Layer 1</title>
  <ellipse filter="url(#svg_12_blur)" stroke="null" ry="12" rx="11.528468" id="svg_12" cy="16.341999" cx="22.063846" fill="#ffaa56"/>
  <ellipse filter="url(#svg_11_blur)" stroke="null" ry="12" rx="11.528468" id="svg_11" cy="16.773777" cx="22.020668" fill="#ffff00"/>
  <path clip-rule="nonzero" fill="#6f6f6f" fill-rule="nonzero" stroke-linecap="round" stroke-linejoin="round" stroke-miterlimit="4" stroke-dashoffset="15" id="rect4666-7-5-47-1-9" d="m10.295765,5.411129c-3.1186,-0.00013 -5.65638,2.53765 -5.65625,5.65625c0,0.00067 0,0.001 0,0.002c0.001,0.44248 0.11693,0.87192 0.2207,1.30078c-2.2423,0.3475 -3.98437,2.21389 -3.98437,4.55273c0,2.5849 2.09679,4.68164 4.68164,4.68164l16.72461,0c2.58485,0 4.68164,-2.09674 4.68164,-4.68164c0,-2.48863 -1.95869,-4.47873 -4.41016,-4.62695c-0.23448,-2.20717 -2.04471,-3.95703 -4.3125,-3.95703c-0.98318,0.001 -1.88112,0.40711 -2.64648,1.00195c-0.75203,-2.29185 -2.83301,-3.92815 -5.29883,-3.92969l0,-0.00004z"/>
  <path clip-rule="nonzero" fill="#6f6f6f" fill-rule="nonzero" stroke-linecap="round" stroke-linejoin="round" stroke-miterlimit="4" stroke-dashoffset="15" id="rect4666-7-7-0" d="m27.586785,12.989259c-3.34819,0.002 -6.17643,2.26592 -7.10157,5.42383c-1.03683,-0.87598 -2.29673,-1.45311 -3.66992,-1.45508c-3.03147,0 -5.45675,2.36628 -5.70117,5.33594c-3.30081,0.12285 -5.94922,2.79397 -5.94922,6.125c0,3.40936 2.76061,6.16992 6.16992,6.16992l22.67774,0c3.40931,0 6.16992,-2.76056 6.16992,-6.16992c0,-3.14737 -2.38115,-5.65945 -5.42578,-6.03907c0.16653,-0.62258 0.32204,-1.25049 0.32422,-1.89648c0,-0.00067 0,-0.001 0,-0.002c0.00017,-4.13235 -3.36179,-7.49236 -7.49414,-7.49219l0,0.00005z"/>
  <path clip-rule="nonzero" fill="#bddde7" fill-rule="nonzero" stroke-linecap="round" stroke-linejoin="round" stroke-miterlimit="4" stroke-dashoffset="15" id="rect4666-7-5-47" d="m9.237423,5.411129c-3.1186,-0.00013 -5.65638,2.53765 -5.65625,5.65625c0,0.00067 0,0.001 0,0.002c0.001,0.44248 0.11693,0.87192 0.2207,1.30078c-2.2423,0.3475 -3.98437,2.21389 -3.98437,4.55273c0,2.5849 2.09679,4.68164 4.68164,4.68164l16.72461,0c2.58485,0 4.68164,-2.09674 4.68164,-4.68164c0,-2.48863 -1.95869,-4.47873 -4.41016,-4.62695c-0.23448,-2.20717 -2.04471,-3.95703 -4.3125,-3.95703c-0.98318,0.001 -1.88112,0.40711 -2.64648,1.00195c-0.75203,-2.29185 -2.83301,-3.92815 -5.29883,-3.92969l0,-0.00004z"/>
  <path clip-rule="nonzero" fill="#ffffff" fill-rule="nonzero" stroke-linecap="round" stroke-linejoin="round" stroke-miterlimit="4" stroke-dashoffset="15" id="rect4666-7" d="m26.528443,12.946081c-3.34819,0.002 -6.17643,2.26592 -7.10157,5.42383c-1.03683,-0.87598 -2.29673,-1.45311 -3.66992,-1.45508c-3.03147,0 -5.45675,2.36628 -5.70117,5.33594c-3.30081,0.12285 -5.94922,2.79397 -5.94922,6.125c0,3.40936 2.76061,6.16992 6.16992,6.16992l22.67774,0c3.40931,0 6.16992,-2.76056 6.16992,-6.16992c0,-3.14737 -2.38115,-5.65945 -5.42578,-6.03907c0.16653,-0.62258 0.32204,-1.25049 0.32422,-1.89648c0,-0.00067 0,-0.001 0,-0.002c0.00017,-4.13235 -3.36179,-7.49236 -7.49414,-7.49219l0,0.00005z"/>
  <text stroke="#000" transform="matrix(0.4274081587791443,0,0,0.5026857852935791,4.6612554574385285,-4.4136636555194855) " xml:space="preserve" text-anchor="start" font-family="Helvetica, Arial, sans-serif" font-size="24" id="svg_1" y="44.03281" x="1.783291" stroke-width="0" fill="#000000">C</text>
  <text stroke="#000" transform="matrix(0.4274081587791443,0,0,0.5026857852935791,4.6612554574385285,-4.4136636555194855) " xml:space="preserve" text-anchor="start" font-family="Helvetica, Arial, sans-serif" font-size="24" id="svg_4" y="64.389729" x="39.363609" stroke-width="0" fill="#000000">C</text>
 </g>
</svg>